<?xml version="1.0" encoding="UTF-8"?>
<svg width="96" height="96" xmlns="http://www.w3.org/2000/svg">
  <rect width="96" height="96" fill="#f9f5ec"/>
  <rect x="12" y="12" width="72" height="72" rx="8" ry="8" fill="#d4a76a"/>
  
  <!-- Grid of images -->
  <rect x="22" y="22" width="16" height="16" fill="#fff" rx="2" ry="2"/>
  <rect x="44" y="22" width="16" height="16" fill="#fff" rx="2" ry="2"/>
  <rect x="66" y="22" width="16" height="16" fill="#fff" rx="2" ry="2"/>
  
  <rect x="22" y="44" width="16" height="16" fill="#fff" rx="2" ry="2"/>
  <rect x="44" y="44" width="16" height="16" fill="#fff" rx="2" ry="2"/>
  <rect x="66" y="44" width="16" height="16" fill="#fff" rx="2" ry="2"/>
  
  <rect x="22" y="66" width="16" height="16" fill="#fff" rx="2" ry="2"/>
  <rect x="44" y="66" width="16" height="16" fill="#fff" rx="2" ry="2"/>
  <rect x="66" y="66" width="16" height="16" fill="#fff" rx="2" ry="2"/>
  
  <text x="48" y="85" font-family="Arial" font-size="10" text-anchor="middle" fill="#333" font-weight="bold">Gallery</text>
</svg>
