<?xml version="1.0" encoding="UTF-8"?>
<svg width="96" height="96" xmlns="http://www.w3.org/2000/svg">
  <rect width="96" height="96" fill="#f9f5ec"/>
  <rect x="12" y="12" width="72" height="72" rx="8" ry="8" fill="#d4a76a"/>
  
  <!-- Calendar icon -->
  <rect x="24" y="26" width="48" height="44" fill="#fff" rx="4" ry="4"/>
  
  <!-- Calendar header -->
  <rect x="24" y="26" width="48" height="10" fill="#e2bc8a" rx="4" ry="4"/>
  
  <!-- Calendar days -->
  <rect x="30" y="42" width="8" height="6" fill="#333" rx="1" ry="1"/>
  <rect x="44" y="42" width="8" height="6" fill="#333" rx="1" ry="1"/>
  <rect x="58" y="42" width="8" height="6" fill="#333" rx="1" ry="1"/>
  
  <rect x="30" y="52" width="8" height="6" fill="#333" rx="1" ry="1"/>
  <rect x="44" y="52" width="8" height="6" fill="#333" rx="1" ry="1"/>
  <rect x="58" y="52" width="8" height="6" fill="#333" rx="1" ry="1"/>
  
  <text x="48" y="85" font-family="Arial" font-size="10" text-anchor="middle" fill="#333" font-weight="bold">Events</text>
</svg>
